<?xml version="1.0" standalone="no"?><!DOCTYPE svg PUBLIC "-//W3C//DTD SVG 1.1//EN" "http://www.w3.org/Graphics/SVG/1.1/DTD/svg11.dtd"><svg t="1553932460465" class="icon" style="" viewBox="0 0 1024 1024" version="1.1" xmlns="http://www.w3.org/2000/svg" p-id="1952" xmlns:xlink="http://www.w3.org/1999/xlink" width="200" height="200"><defs><style type="text/css"></style></defs><path d="M456.32 433.216v227.712h49.792V362.304H456.32v0.512L350.976 468.16 246.144 363.264v-0.896h-49.792v298.624h49.792V433.664l104.96 104.96 35.2-35.2-0.128-0.064L456.32 433.216z m-328.256-294.4h768a64 64 0 0 1 64 64v618.624a64 64 0 0 1-64 64h-768a64 64 0 0 1-64-64V202.752a64 64 0 0 1 64-64z m581.76 427.968V362.304h-49.728v201.792L580.8 484.8l-35.2 35.2 140.8 140.8 35.2-35.2-0.064-0.064 105.6-105.664-35.2-35.2-82.048 82.112z" fill="#61A0FF" p-id="1953"></path></svg>